<svg width="21" height="21" viewBox="0 0 21 21" fill="none" xmlns="http://www.w3.org/2000/svg">
<path d="M2.625 0C1.92881 0 1.26113 0.276562 0.768845 0.768845C0.276562 1.26113 0 1.92881 0 2.625L0 18.375C0 19.0712 0.276562 19.7389 0.768845 20.2312C1.26113 20.7234 1.92881 21 2.625 21H18.375C19.0712 21 19.7389 20.7234 20.2312 20.2312C20.7234 19.7389 21 19.0712 21 18.375V2.625C21 1.92881 20.7234 1.26113 20.2312 0.768845C19.7389 0.276562 19.0712 0 18.375 0L2.625 0ZM11.1562 5.90625V9.84375H15.0938C15.2678 9.84375 15.4347 9.91289 15.5578 10.036C15.6809 10.159 15.75 10.326 15.75 10.5C15.75 10.674 15.6809 10.841 15.5578 10.964C15.4347 11.0871 15.2678 11.1562 15.0938 11.1562H11.1562V15.0938C11.1562 15.2678 11.0871 15.4347 10.964 15.5578C10.841 15.6809 10.674 15.75 10.5 15.75C10.326 15.75 10.159 15.6809 10.036 15.5578C9.91289 15.4347 9.84375 15.2678 9.84375 15.0938V11.1562H5.90625C5.7322 11.1562 5.56528 11.0871 5.44221 10.964C5.31914 10.841 5.25 10.674 5.25 10.5C5.25 10.326 5.31914 10.159 5.44221 10.036C5.56528 9.91289 5.7322 9.84375 5.90625 9.84375H9.84375V5.90625C9.84375 5.7322 9.91289 5.56528 10.036 5.44221C10.159 5.31914 10.326 5.25 10.5 5.25C10.674 5.25 10.841 5.31914 10.964 5.44221C11.0871 5.56528 11.1562 5.7322 11.1562 5.90625V5.90625Z" fill="#26ACE2"/>
</svg>
