<svg width="24" height="24" viewBox="0 0 24 24" fill="none" xmlns="http://www.w3.org/2000/svg">
<path d="M20.9063 18.0938H19.0313V16.2188C19.0313 16.1156 18.9469 16.0312 18.8438 16.0312H17.7188C17.6156 16.0312 17.5313 16.1156 17.5313 16.2188V18.0938H15.6563C15.5531 18.0938 15.4688 18.1781 15.4688 18.2812V19.4062C15.4688 19.5094 15.5531 19.5938 15.6563 19.5938H17.5313V21.4688C17.5313 21.5719 17.6156 21.6562 17.7188 21.6562H18.8438C18.9469 21.6562 19.0313 21.5719 19.0313 21.4688V19.5938H20.9063C21.0094 19.5938 21.0938 19.5094 21.0938 19.4062V18.2812C21.0938 18.1781 21.0094 18.0938 20.9063 18.0938ZM8.75391 11.6813C8.73282 11.4773 8.7211 11.2711 8.7211 11.0625C8.7211 10.6898 8.75625 10.3266 8.82188 9.97266C8.83828 9.88828 8.79375 9.80156 8.71641 9.76641C8.39766 9.62344 8.10469 9.42656 7.85157 9.17813C7.5533 8.88892 7.31859 8.54072 7.16242 8.15574C7.00625 7.77076 6.93204 7.35745 6.94453 6.94219C6.96563 6.18984 7.26797 5.475 7.79532 4.93594C8.37422 4.34297 9.15235 4.01953 9.97969 4.02891C10.7273 4.03594 11.4492 4.32422 11.9953 4.83516C12.1805 5.00859 12.3398 5.20078 12.4734 5.40703C12.5203 5.47969 12.6117 5.51016 12.6914 5.48203C13.1039 5.33906 13.5398 5.23828 13.9875 5.19141C14.1188 5.17734 14.1938 5.03672 14.1352 4.91953C13.3734 3.4125 11.8172 2.37188 10.0172 2.34375C7.42032 2.30391 5.25469 4.43438 5.25469 7.03125C5.25469 8.50313 5.93203 9.81563 6.99375 10.6758C6.24844 11.0203 5.56172 11.4961 4.96641 12.0914C3.68203 13.3734 2.95547 15.0656 2.9086 16.8727C2.90797 16.8977 2.91236 16.9226 2.9215 16.9459C2.93064 16.9691 2.94436 16.9904 2.96183 17.0083C2.9793 17.0262 3.00019 17.0404 3.02324 17.0501C3.0463 17.0599 3.07108 17.0649 3.0961 17.0648H4.41094C4.51172 17.0648 4.5961 16.9852 4.59844 16.8844C4.64297 15.525 5.19375 14.2523 6.16172 13.2867C6.85078 12.5977 7.69453 12.1195 8.61563 11.8875C8.70469 11.8617 8.76563 11.775 8.75391 11.6813ZM19.3125 11.0625C19.3125 8.49844 17.2523 6.41484 14.6977 6.375C12.1008 6.33516 9.9375 8.46563 9.9375 11.0625C9.9375 12.5344 10.6172 13.8469 11.6766 14.707C10.9235 15.0561 10.238 15.5353 9.65157 16.1227C8.36719 17.4047 7.64063 19.0969 7.59375 20.9016C7.59313 20.9266 7.59752 20.9515 7.60666 20.9748C7.6158 20.998 7.62951 21.0193 7.64699 21.0372C7.66446 21.0551 7.68534 21.0693 7.7084 21.079C7.73146 21.0888 7.75623 21.0938 7.78125 21.0938H9.09375C9.19453 21.0938 9.27891 21.0141 9.28125 20.9133C9.32578 19.5539 9.87657 18.2812 10.8445 17.3156C11.8547 16.3055 13.1953 15.75 14.625 15.75C17.2125 15.75 19.3125 13.6523 19.3125 11.0625ZM16.7461 13.1836C16.1789 13.7508 15.4266 14.0625 14.625 14.0625C13.8234 14.0625 13.0711 13.7508 12.5039 13.1836C12.2209 12.902 11.9972 12.5665 11.8463 12.1969C11.6953 11.8274 11.6201 11.4312 11.625 11.032C11.632 10.2633 11.9391 9.52031 12.4758 8.96953C13.0383 8.39297 13.7906 8.07188 14.5945 8.0625C15.3891 8.05547 16.1602 8.36484 16.7273 8.92031C17.3086 9.48984 17.6273 10.2516 17.6273 11.0625C17.625 11.8641 17.3133 12.6164 16.7461 13.1836Z" fill="#212221"/>
</svg>
