<?xml version="1.0" standalone="no"?>
<!DOCTYPE svg PUBLIC "-//W3C//DTD SVG 20010904//EN"
 "http://www.w3.org/TR/2001/REC-SVG-20010904/DTD/svg10.dtd">
<svg version="1.0" xmlns="http://www.w3.org/2000/svg"
 width="150.000000pt" height="150.000000pt" viewBox="0 0 150.000000 150.000000"
 preserveAspectRatio="xMidYMid meet">
<metadata>
Created by potrace 1.14, written by Peter Selinger 2001-2017
</metadata>
<g transform="translate(0.000000,150.000000) scale(0.100000,-0.100000)"
fill="#000000" stroke="none">
<path d="M827 1166 c-15 -7 -24 -15 -21 -19 4 -4 0 -7 -9 -7 -9 0 -17 -6 -17
-13 0 -9 -34 -12 -142 -12 -107 1 -152 -3 -178 -14 -22 -10 -71 -16 -132 -17
-53 -1 -109 -5 -125 -9 -43 -12 -103 -3 -103 15 0 12 -38 0 -52 -17 -15 -19
-21 -76 -6 -67 7 5 8 2 2 -7 -13 -20 -13 -119 0 -119 7 0 7 -3 -1 -8 -12 -8
-12 -36 0 -48 4 -4 2 -12 -3 -19 -7 -8 -2 -18 14 -32 l24 -21 55 29 c37 18 57
24 59 17 3 -8 42 -13 119 -14 109 -1 159 -8 159 -23 0 -4 67 -7 150 -7 135 0
151 -2 167 -19 40 -44 57 -47 263 -47 120 0 206 4 218 11 11 6 22 7 26 4 3 -3
6 -2 6 3 0 5 11 22 25 38 14 16 25 37 25 47 0 12 10 21 27 25 29 8 85 62 77
75 -2 4 0 10 6 14 5 3 10 21 10 40 0 19 -5 37 -10 40 -6 4 -8 10 -5 14 6 11
-56 67 -84 76 -11 3 -28 18 -35 33 -17 31 -52 63 -60 55 -3 -4 -6 -1 -6 5 0
16 -406 15 -443 -2z"/>
<path d="M259 586 c-1 -2 -1 -128 0 -147 1 -11 8 -15 24 -12 20 4 22 10 21 67
0 34 -4 67 -7 73 -4 6 -1 13 5 16 7 2 1 4 -14 4 -16 0 -28 0 -29 -1z"/>
<path d="M324 578 c-7 -11 3 -23 19 -23 7 -1 11 -6 10 -13 -2 -7 1 -12 6 -12
5 0 7 -22 6 -50 -1 -27 1 -50 6 -50 4 0 14 -2 22 -5 11 -5 14 5 15 47 1 86 1
88 17 82 19 -8 35 3 29 19 -6 16 -121 20 -130 5z"/>
<path d="M515 580 c-3 -5 -3 -14 0 -20 3 -5 2 -10 -4 -10 -6 0 -7 -11 -2 -28
5 -15 4 -37 0 -50 -5 -14 -5 -22 2 -22 6 0 8 -4 5 -9 -7 -11 17 -21 31 -13 6
4 9 19 8 35 -3 24 0 27 26 27 26 0 29 -3 29 -34 0 -29 3 -33 23 -29 22 4 23 9
21 76 -1 40 -3 75 -3 80 -1 4 -10 7 -21 7 -16 0 -20 -7 -20 -30 0 -23 -4 -30
-20 -30 -11 0 -23 0 -27 0 -5 0 -9 9 -9 20 -3 37 -4 40 -18 40 -8 0 -18 -4
-21 -10z"/>
<path d="M686 582 c-2 -4 -3 -33 -2 -65 2 -48 6 -60 26 -74 60 -42 104 -9 107
77 2 61 -4 74 -29 65 -9 -4 -13 -22 -12 -55 0 -35 -3 -50 -13 -50 -29 0 -29 1
-32 80 -1 18 -7 26 -21 27 -11 1 -21 -1 -24 -5z"/>
<path d="M855 584 c-11 -4 -12 -135 -1 -152 3 -6 14 -9 24 -8 12 2 17 12 17
39 0 21 2 37 5 37 3 0 16 -17 29 -38 24 -39 57 -50 65 -22 3 8 4 40 2 71 -1
46 1 55 16 56 10 1 18 -2 18 -8 0 -5 6 -9 14 -9 16 0 26 -82 14 -104 -5 -9 -1
-15 11 -19 30 -7 37 4 39 61 1 59 7 73 27 66 9 -4 13 1 11 13 -2 15 -13 18
-56 20 -30 1 -61 -2 -70 -7 -11 -6 -21 -5 -28 2 -19 19 -40 2 -38 -32 3 -36
-13 -52 -21 -21 -3 12 -9 21 -13 21 -5 0 -12 9 -15 20 -6 19 -26 24 -50 14z"/>
</g>
</svg>
