<svg width="26" height="26" viewBox="0 0 26 26" fill="none" xmlns="http://www.w3.org/2000/svg">
<g clip-path="url(#clip0_17_862)">
<path d="M0 6.54258V9.38886H4.06467L0 6.54258ZM3.36844 22.3889H9.38889V18.1733L3.36844 22.3889ZM16.6111 18.174V22.3889H22.6308L16.6111 18.174ZM0 16.6111V19.4574L4.06611 16.6111H0ZM22.6323 3.61108H16.6111V7.8267L22.6323 3.61108ZM26 19.4581V16.6111H21.9332L26 19.4581ZM26 9.38886V6.54258L21.9346 9.38886H26ZM9.38889 3.61108H3.36844L9.38889 7.8267V3.61108Z" fill="#00247D"/>
<path d="M18.1567 16.6111L25.1709 21.5229C25.5135 21.17 25.7596 20.7351 25.8859 20.2598L20.6751 16.6111H18.1567ZM9.3889 16.6111H7.84263L0.829126 21.5222C1.2054 21.905 1.68785 22.1787 2.22879 22.3058L9.3889 17.2922V16.6111ZM16.6111 9.38888H18.1574L25.1709 4.47776C24.7882 4.08941 24.303 3.81767 23.772 3.69415L16.6111 8.70782V9.38888ZM7.84263 9.38888L0.829126 4.47776C0.486758 4.83091 0.24038 5.26574 0.113403 5.74093L5.32424 9.38888H7.84263Z" fill="#CF1B2B"/>
<path d="M26 15.1666H15.1667V22.3889H16.6111V18.174L22.6308 22.3889H23.1111C23.4948 22.3889 23.8746 22.3124 24.2283 22.1637C24.5821 22.015 24.9025 21.7971 25.1709 21.5229L18.1567 16.6111H20.6751L25.8859 20.2598C25.9531 20.0164 26 19.7643 26 19.5V19.4581L21.9332 16.6111H26V15.1666ZM0 15.1666V16.6111H4.06611L0 19.4574V19.5C0 20.2879 0.317056 21.0008 0.829111 21.5222L7.84261 16.6111H9.38889V17.2921L2.22878 22.3051C2.44111 22.3556 2.66067 22.3889 2.88889 22.3889H3.36844L9.38889 18.1733V22.3889H10.8333V15.1666H0ZM26 6.49997C26.0004 5.74307 25.7025 5.01649 25.1709 4.47775L18.1574 9.38886H16.6111V8.70781L23.7719 3.69414C23.5556 3.64108 23.3339 3.61321 23.1111 3.61108H22.6323L16.6111 7.8267V3.61108H15.1667V10.8333H26V9.38886H21.9346L26 6.54258V6.49997ZM9.38889 3.61108V7.8267L3.36844 3.61108H2.88889C2.50512 3.61092 2.12519 3.6875 1.77145 3.83634C1.41771 3.98518 1.09732 4.20326 0.829111 4.47775L7.84261 9.38886H5.32422L0.113389 5.74092C0.0417301 5.98771 0.00359191 6.24302 0 6.49997L0 6.54258L4.06467 9.38886H0V10.8333H10.8333V3.61108H9.38889Z" fill="#EEEEEE"/>
<path d="M15.1667 10.8333V3.61108H10.8333V10.8333H0V15.1666H10.8333V22.3889H15.1667V15.1666H26V10.8333H15.1667Z" fill="#CF1B2B"/>
</g>
<defs>
<clipPath id="clip0_17_862">
<rect width="26" height="26" fill="white"/>
</clipPath>
</defs>
</svg>
