<svg width="34" height="34" viewBox="0 0 34 34" fill="none" xmlns="http://www.w3.org/2000/svg">
<g clip-path="url(#clip0_307_160)">
<path d="M17 0C12.4923 0 8.16531 1.79217 4.98047 4.97914C1.79234 8.16737 0.000883123 12.4912 0 17C0 21.5069 1.79297 25.8339 4.98047 29.0209C8.16531 32.2078 12.4923 34 17 34C21.5077 34 25.8347 32.2078 29.0195 29.0209C32.207 25.8339 34 21.5069 34 17C34 12.4931 32.207 8.16611 29.0195 4.97914C25.8347 1.79217 21.5077 0 17 0Z" fill="url(#paint0_linear_307_160)"/>
<path d="M7.69519 16.821C12.6518 14.662 15.9561 13.2386 17.6083 12.5509C22.3311 10.5871 23.3113 10.246 23.9514 10.2345C24.0922 10.2322 24.4057 10.267 24.6102 10.4324C24.7802 10.5718 24.828 10.7604 24.8519 10.8928C24.8732 11.0251 24.9024 11.3266 24.8785 11.5619C24.6235 14.2501 23.5158 20.7733 22.9527 23.7841C22.7163 25.0581 22.2461 25.4852 21.7919 25.5269C20.8038 25.6177 20.0547 24.8745 19.0985 24.2479C17.603 23.267 16.7583 22.6566 15.3053 21.6995C13.6266 20.5935 14.7157 19.9854 15.6719 18.992C15.9216 18.732 20.2725 14.7755 20.3549 14.4166C20.3655 14.3717 20.3761 14.2044 20.2752 14.1162C20.1769 14.0277 20.0308 14.058 19.9246 14.0819C19.7732 14.1159 17.3852 15.6959 12.7527 18.8215C12.0753 19.2874 11.4618 19.5145 10.9093 19.5025C10.3036 19.4895 9.13488 19.1593 8.26629 18.8772C7.20379 18.5311 6.35644 18.3481 6.43082 17.7603C6.46801 17.4543 6.89035 17.1411 7.69519 16.821Z" fill="white"/>
</g>
<defs>
<linearGradient id="paint0_linear_307_160" x1="17" y1="0" x2="17" y2="34" gradientUnits="userSpaceOnUse">
<stop stop-color="#2AABEE"/>
<stop offset="1" stop-color="#229ED9"/>
</linearGradient>
<clipPath id="clip0_307_160">
<rect width="34" height="34" fill="white"/>
</clipPath>
</defs>
</svg>
