<svg width="26" height="26" viewBox="0 0 26 26" fill="none" xmlns="http://www.w3.org/2000/svg">
<g clip-path="url(#clip0_17_906)">
<path d="M0 19.5C0 20.2662 0.304364 21.001 0.846136 21.5428C1.38791 22.0846 2.12271 22.3889 2.88889 22.3889H23.1111C23.8773 22.3889 24.6121 22.0846 25.1539 21.5428C25.6956 21.001 26 20.2662 26 19.5V15.8889H0V19.5Z" fill="#138808"/>
<path d="M26 10.1111V6.49997C26 5.73379 25.6956 4.99899 25.1539 4.45722C24.6121 3.91545 23.8773 3.61108 23.1111 3.61108H2.88889C2.12271 3.61108 1.38791 3.91545 0.846136 4.45722C0.304364 4.99899 0 5.73379 0 6.49997L0 10.1111H26Z" fill="#FF9933"/>
<path d="M0 9.87061H26V16.1301H0V9.87061Z" fill="#F7F7F7"/>
<path d="M13 15.8889C14.5955 15.8889 15.8889 14.5955 15.8889 13C15.8889 11.4045 14.5955 10.1111 13 10.1111C11.4045 10.1111 10.1111 11.4045 10.1111 13C10.1111 14.5955 11.4045 15.8889 13 15.8889Z" fill="#000080"/>
<path d="M13 15.4375C14.3462 15.4375 15.4375 14.3462 15.4375 13C15.4375 11.6538 14.3462 10.5625 13 10.5625C11.6538 10.5625 10.5625 11.6538 10.5625 13C10.5625 14.3462 11.6538 15.4375 13 15.4375Z" fill="#F7F7F7"/>
<path d="M13.0722 12.0972L13 12.5667L12.9278 12.0972L13 10.6889L13.0722 12.0972ZM12.402 10.7676L12.6967 12.1463L12.8881 12.5811L12.8361 12.1095L12.402 10.7676ZM11.8445 10.9987L12.4858 12.254L12.7833 12.6245L12.6115 12.1817L11.8445 10.9987ZM11.3656 11.3656L12.3103 12.4128L12.6938 12.6938L12.4128 12.3103L11.3656 11.3656ZM10.9987 11.8445L12.1817 12.6115L12.6245 12.7833L12.254 12.4858L10.9987 11.8445ZM10.7676 12.402L12.1095 12.8361L12.5811 12.8881L12.1463 12.6967L10.7676 12.402ZM10.6889 13L12.0972 13.0722L12.5667 13L12.0972 12.9278L10.6889 13ZM10.7676 13.598L12.1463 13.3033L12.5811 13.112L12.1095 13.164L10.7676 13.598ZM10.9987 14.1556L12.254 13.5142L12.6245 13.2167L12.1817 13.3886L10.9987 14.1556ZM11.3656 14.6344L12.4128 13.6897L12.6938 13.3062L12.3103 13.5872L11.3656 14.6344ZM11.8445 15.0013L12.6115 13.8183L12.7833 13.3756L12.4858 13.7461L11.8445 15.0013ZM12.402 15.2324L12.8361 13.8905L12.8881 13.4189L12.6967 13.8537L12.402 15.2324ZM13 15.3111L13.0722 13.9028L13 13.4333L12.9278 13.9028L13 15.3111ZM13.598 15.2324L13.3033 13.8537L13.112 13.4189L13.164 13.8905L13.598 15.2324ZM14.1556 15.0013L13.5142 13.7461L13.2167 13.3756L13.3886 13.8183L14.1556 15.0013ZM14.6344 14.6344L13.6897 13.5872L13.3062 13.3062L13.5872 13.6897L14.6344 14.6344ZM15.0013 14.1556L13.8183 13.3886L13.3756 13.2167L13.7461 13.5142L15.0013 14.1556ZM15.2324 13.598L13.8905 13.164L13.4189 13.112L13.8537 13.3033L15.2324 13.598ZM15.3111 13L13.9028 12.9278L13.4333 13L13.9028 13.0722L15.3111 13ZM15.2324 12.402L13.8537 12.6967L13.4189 12.8881L13.8905 12.8361L15.2324 12.402ZM15.0013 11.8445L13.7461 12.4858L13.3756 12.7833L13.8183 12.6115L15.0013 11.8445ZM14.6344 11.3656L13.5872 12.3103L13.3062 12.6938L13.6897 12.4128L14.6344 11.3656ZM14.1556 10.9987L13.3886 12.1817L13.2167 12.6245L13.5142 12.254L14.1556 10.9987ZM13.598 10.7676L13.164 12.1095L13.112 12.5811L13.3033 12.1463L13.598 10.7676Z" fill="#6666B3"/>
<path d="M12.6822 10.7315C12.762 10.7315 12.8267 10.6668 12.8267 10.5871C12.8267 10.5073 12.762 10.4426 12.6822 10.4426C12.6024 10.4426 12.5378 10.5073 12.5378 10.5871C12.5378 10.6668 12.6024 10.7315 12.6822 10.7315Z" fill="#000080"/>
<path d="M12.0683 10.8962C12.1481 10.8962 12.2128 10.8315 12.2128 10.7517C12.2128 10.672 12.1481 10.6073 12.0683 10.6073C11.9886 10.6073 11.9239 10.672 11.9239 10.7517C11.9239 10.8315 11.9886 10.8962 12.0683 10.8962Z" fill="#000080"/>
<path d="M11.518 11.2133C11.5978 11.2133 11.6625 11.1486 11.6625 11.0688C11.6625 10.989 11.5978 10.9244 11.518 10.9244C11.4383 10.9244 11.3736 10.989 11.3736 11.0688C11.3736 11.1486 11.4383 11.2133 11.518 11.2133Z" fill="#000080"/>
<path d="M11.0688 11.6625C11.1486 11.6625 11.2133 11.5978 11.2133 11.518C11.2133 11.4383 11.1486 11.3736 11.0688 11.3736C10.989 11.3736 10.9244 11.4383 10.9244 11.518C10.9244 11.5978 10.989 11.6625 11.0688 11.6625Z" fill="#000080"/>
<path d="M10.7517 12.2128C10.8315 12.2128 10.8962 12.1481 10.8962 12.0683C10.8962 11.9886 10.8315 11.9239 10.7517 11.9239C10.672 11.9239 10.6073 11.9886 10.6073 12.0683C10.6073 12.1481 10.672 12.2128 10.7517 12.2128Z" fill="#000080"/>
<path d="M10.5871 12.8267C10.6668 12.8267 10.7315 12.762 10.7315 12.6822C10.7315 12.6024 10.6668 12.5378 10.5871 12.5378C10.5073 12.5378 10.4426 12.6024 10.4426 12.6822C10.4426 12.762 10.5073 12.8267 10.5871 12.8267Z" fill="#000080"/>
<path d="M10.5871 13.4622C10.6668 13.4622 10.7315 13.3976 10.7315 13.3178C10.7315 13.238 10.6668 13.1733 10.5871 13.1733C10.5073 13.1733 10.4426 13.238 10.4426 13.3178C10.4426 13.3976 10.5073 13.4622 10.5871 13.4622Z" fill="#000080"/>
<path d="M10.7517 14.0761C10.8315 14.0761 10.8962 14.0115 10.8962 13.9317C10.8962 13.8519 10.8315 13.7872 10.7517 13.7872C10.672 13.7872 10.6073 13.8519 10.6073 13.9317C10.6073 14.0115 10.672 14.0761 10.7517 14.0761Z" fill="#000080"/>
<path d="M11.0688 14.6265C11.1486 14.6265 11.2133 14.5618 11.2133 14.482C11.2133 14.4023 11.1486 14.3376 11.0688 14.3376C10.989 14.3376 10.9244 14.4023 10.9244 14.482C10.9244 14.5618 10.989 14.6265 11.0688 14.6265Z" fill="#000080"/>
<path d="M11.518 15.0757C11.5978 15.0757 11.6625 15.011 11.6625 14.9312C11.6625 14.8515 11.5978 14.7868 11.518 14.7868C11.4383 14.7868 11.3736 14.8515 11.3736 14.9312C11.3736 15.011 11.4383 15.0757 11.518 15.0757Z" fill="#000080"/>
<path d="M12.0683 15.3927C12.1481 15.3927 12.2128 15.328 12.2128 15.2483C12.2128 15.1685 12.1481 15.1038 12.0683 15.1038C11.9886 15.1038 11.9239 15.1685 11.9239 15.2483C11.9239 15.328 11.9886 15.3927 12.0683 15.3927Z" fill="#000080"/>
<path d="M12.6822 15.5574C12.762 15.5574 12.8267 15.4927 12.8267 15.4129C12.8267 15.3332 12.762 15.2685 12.6822 15.2685C12.6024 15.2685 12.5378 15.3332 12.5378 15.4129C12.5378 15.4927 12.6024 15.5574 12.6822 15.5574Z" fill="#000080"/>
<path d="M13.3178 15.5574C13.3976 15.5574 13.4622 15.4927 13.4622 15.4129C13.4622 15.3332 13.3976 15.2685 13.3178 15.2685C13.238 15.2685 13.1733 15.3332 13.1733 15.4129C13.1733 15.4927 13.238 15.5574 13.3178 15.5574Z" fill="#000080"/>
<path d="M13.9317 15.3927C14.0115 15.3927 14.0761 15.328 14.0761 15.2483C14.0761 15.1685 14.0115 15.1038 13.9317 15.1038C13.8519 15.1038 13.7872 15.1685 13.7872 15.2483C13.7872 15.328 13.8519 15.3927 13.9317 15.3927Z" fill="#000080"/>
<path d="M14.482 15.0757C14.5618 15.0757 14.6265 15.011 14.6265 14.9312C14.6265 14.8515 14.5618 14.7868 14.482 14.7868C14.4023 14.7868 14.3376 14.8515 14.3376 14.9312C14.3376 15.011 14.4023 15.0757 14.482 15.0757Z" fill="#000080"/>
<path d="M14.9312 14.6265C15.011 14.6265 15.0757 14.5618 15.0757 14.482C15.0757 14.4023 15.011 14.3376 14.9312 14.3376C14.8515 14.3376 14.7868 14.4023 14.7868 14.482C14.7868 14.5618 14.8515 14.6265 14.9312 14.6265Z" fill="#000080"/>
<path d="M15.2483 14.0761C15.328 14.0761 15.3927 14.0115 15.3927 13.9317C15.3927 13.8519 15.328 13.7872 15.2483 13.7872C15.1685 13.7872 15.1038 13.8519 15.1038 13.9317C15.1038 14.0115 15.1685 14.0761 15.2483 14.0761Z" fill="#000080"/>
<path d="M15.4129 13.4622C15.4927 13.4622 15.5574 13.3976 15.5574 13.3178C15.5574 13.238 15.4927 13.1733 15.4129 13.1733C15.3332 13.1733 15.2685 13.238 15.2685 13.3178C15.2685 13.3976 15.3332 13.4622 15.4129 13.4622Z" fill="#000080"/>
<path d="M15.4129 12.8267C15.4927 12.8267 15.5574 12.762 15.5574 12.6822C15.5574 12.6024 15.4927 12.5378 15.4129 12.5378C15.3332 12.5378 15.2685 12.6024 15.2685 12.6822C15.2685 12.762 15.3332 12.8267 15.4129 12.8267Z" fill="#000080"/>
<path d="M15.2483 12.2128C15.328 12.2128 15.3927 12.1481 15.3927 12.0683C15.3927 11.9886 15.328 11.9239 15.2483 11.9239C15.1685 11.9239 15.1038 11.9886 15.1038 12.0683C15.1038 12.1481 15.1685 12.2128 15.2483 12.2128Z" fill="#000080"/>
<path d="M14.9312 11.6625C15.011 11.6625 15.0757 11.5978 15.0757 11.518C15.0757 11.4383 15.011 11.3736 14.9312 11.3736C14.8515 11.3736 14.7868 11.4383 14.7868 11.518C14.7868 11.5978 14.8515 11.6625 14.9312 11.6625Z" fill="#000080"/>
<path d="M14.482 11.2133C14.5618 11.2133 14.6265 11.1486 14.6265 11.0688C14.6265 10.989 14.5618 10.9244 14.482 10.9244C14.4023 10.9244 14.3376 10.989 14.3376 11.0688C14.3376 11.1486 14.4023 11.2133 14.482 11.2133Z" fill="#000080"/>
<path d="M13.9317 10.8962C14.0115 10.8962 14.0761 10.8315 14.0761 10.7517C14.0761 10.672 14.0115 10.6073 13.9317 10.6073C13.8519 10.6073 13.7872 10.672 13.7872 10.7517C13.7872 10.8315 13.8519 10.8962 13.9317 10.8962Z" fill="#000080"/>
<path d="M13.3178 10.7315C13.3976 10.7315 13.4622 10.6668 13.4622 10.5871C13.4622 10.5073 13.3976 10.4426 13.3178 10.4426C13.238 10.4426 13.1733 10.5073 13.1733 10.5871C13.1733 10.6668 13.238 10.7315 13.3178 10.7315Z" fill="#000080"/>
<path d="M13 13.65C13.359 13.65 13.65 13.359 13.65 13C13.65 12.6411 13.359 12.35 13 12.35C12.6411 12.35 12.35 12.6411 12.35 13C12.35 13.359 12.6411 13.65 13 13.65Z" fill="#000080"/>
</g>
<defs>
<clipPath id="clip0_17_906">
<rect width="26" height="26" fill="white"/>
</clipPath>
</defs>
</svg>
