<svg width="95" height="49" viewBox="0 0 95 49" fill="none" xmlns="http://www.w3.org/2000/svg">
<path d="M23.75 14.201C24.75 14.7783 24.75 16.2217 23.75 16.799L11 24.1603C10 24.7376 8.75 24.0159 8.75 22.8612L8.75 8.13878C8.75 6.98408 10 6.26239 11 6.83975L23.75 14.201Z" fill="#26ACE2" stroke="#212221" stroke-width="3"/>
<rect x="14.5" y="7.5" width="19" height="15" rx="4.5" fill="white" stroke="#212221" stroke-width="3"/>
<circle cx="86.5" cy="14.5" r="7" fill="#26ACE2" stroke="#212221" stroke-width="3"/>
<rect x="29.5" y="5.5" width="28" height="19" rx="6.5" fill="white" stroke="#212221" stroke-width="3"/>
<rect x="52.5" y="1.5" width="34" height="27" rx="6.5" fill="white" stroke="#212221" stroke-width="3"/>
<path d="M23.808 36.088V46H20.7V36.088H23.808ZM32.9957 36.088V38.552H30.3637V46H27.2557V38.552H24.6517V36.088H32.9957ZM45.3876 36.088V46H42.2796V42.136H39.3256V46H36.2176V36.088H39.3256V39.658H42.2796V36.088H45.3876ZM49.8239 36.088V41.674C49.8239 42.1313 49.9219 42.4953 50.1179 42.766C50.3233 43.0273 50.6499 43.158 51.0979 43.158C51.5459 43.158 51.8773 43.0273 52.0919 42.766C52.3066 42.4953 52.4139 42.1313 52.4139 41.674V36.088H55.5079V41.674C55.5079 42.6167 55.3119 43.424 54.9199 44.096C54.5279 44.7587 53.9913 45.258 53.3099 45.594C52.6286 45.93 51.8679 46.098 51.0279 46.098C50.1879 46.098 49.4413 45.93 48.7879 45.594C48.1439 45.258 47.6399 44.7587 47.2759 44.096C46.9119 43.4333 46.7299 42.626 46.7299 41.674V36.088H49.8239ZM66.3544 46H63.2464L59.9564 41.016V46H56.8484V36.088H59.9564L63.2464 41.156V36.088H66.3544V46ZM75.5426 36.088V38.552H72.9106V46H69.8026V38.552H67.1986V36.088H75.5426Z" fill="#212221"/>
</svg>
