<svg width="14" height="9" viewBox="0 0 14 9" fill="none" xmlns="http://www.w3.org/2000/svg">
<path d="M13.6918 8.20406C13.4945 8.40047 13.2268 8.5108 12.9477 8.5108C12.6686 8.5108 12.401 8.40047 12.2036 8.20406L6.99365 3.01805L1.78371 8.20406C1.5852 8.3949 1.31933 8.5005 1.04337 8.49811C0.767401 8.49573 0.503418 8.38554 0.308273 8.19129C0.113129 7.99705 0.00243824 7.73428 4.01983e-05 7.45958C-0.00235784 7.18488 0.10373 6.92023 0.295453 6.72264L6.24952 0.795927C6.4469 0.599518 6.71456 0.489181 6.99365 0.489181C7.27274 0.489181 7.5404 0.599518 7.73777 0.795927L13.6918 6.72264C13.8892 6.91911 14 7.18554 14 7.46335C14 7.74116 13.8892 8.00759 13.6918 8.20406V8.20406Z" fill="#212221"/>
</svg>
