<svg width="34" height="34" viewBox="0 0 34 34" fill="none" xmlns="http://www.w3.org/2000/svg">
<g clip-path="url(#clip0_307_164)">
<path d="M28.9694 28.9701H23.9317V21.0806C23.9317 19.1993 23.8981 16.7775 21.3116 16.7775C18.6877 16.7775 18.2862 18.8273 18.2862 20.9437V28.9695H13.2487V12.7457H18.0848V14.9629H18.1525C18.6365 14.1353 19.3359 13.4545 20.1761 12.993C21.0164 12.5315 21.9662 12.3065 22.9242 12.3421C28.0302 12.3421 28.9715 15.7006 28.9715 20.0699L28.9694 28.9701ZM7.56429 10.5281C5.94968 10.5284 4.64055 9.21966 4.64029 7.60506C4.64002 5.99046 5.94862 4.68133 7.56322 4.68106C9.17782 4.68066 10.487 5.9894 10.4872 7.604C10.4874 8.37936 10.1795 9.12303 9.63134 9.6714C9.08319 10.2198 8.33965 10.528 7.56429 10.5281ZM10.0832 28.9702H5.04018V12.7457H10.0831L10.0832 28.9702ZM31.4809 0.00247455H2.50878C1.13948 -0.0129317 0.0165513 1.08397 -0.000183105 2.45326V31.5462C0.01602 32.9162 1.13882 34.0142 2.50865 33.9998H31.4809C32.8536 34.0168 33.9808 32.9189 33.9998 31.5462V2.45101C33.9803 1.07905 32.853 -0.017713 31.4809 0.000216736" fill="#0A66C2"/>
</g>
<defs>
<clipPath id="clip0_307_164">
<rect width="34" height="34" rx="17" fill="white"/>
</clipPath>
</defs>
</svg>
