<?xml version="1.0"?><svg fill="#000000" xmlns="http://www.w3.org/2000/svg"  viewBox="0 0 30 30" width="34px" height="34px">    <path d="M25.362,8.32c-0.409-1.459-1.218-2.614-2.405-3.431c-1.498-1.032-3.221-1.398-4.709-1.62c-2.059-0.307-3.924-0.35-5.7-0.133 c-1.666,0.204-2.92,0.53-4.065,1.056c-2.243,1.03-3.589,2.698-4,4.956c-0.2,1.096-0.334,2.087-0.412,3.032 c-0.18,2.185-0.017,4.119,0.499,5.911c0.502,1.747,1.38,2.996,2.684,3.816c0.333,0.209,0.757,0.36,1.169,0.506 C8.629,22.486,8.827,22.558,9,22.634v3.53C9,26.626,9.374,27,9.836,27h0c0.218,0,0.427-0.085,0.583-0.237l3.257-3.168 c0.142-0.162,0.142-0.162,0.288-0.165c1.113-0.022,2.25-0.065,3.38-0.126c1.369-0.075,2.955-0.207,4.449-0.83 c1.367-0.571,2.365-1.477,2.964-2.692c0.625-1.268,0.997-2.642,1.136-4.199C26.137,12.845,25.963,10.469,25.362,8.32z M19.691,18.74 c-0.327,0.535-0.817,0.905-1.393,1.145c-0.421,0.176-0.851,0.139-1.266-0.037c-3.484-1.474-6.215-3.798-8.021-7.137 c-0.372-0.688-0.631-1.437-0.928-2.164C8.022,10.397,8.027,10.222,8,10.059c0.026-1.175,0.927-1.836,1.837-2.036 c0.348-0.077,0.656,0.046,0.914,0.293c0.714,0.682,1.279,1.472,1.704,2.358c0.186,0.389,0.102,0.733-0.215,1.022 c-0.065,0.06-0.134,0.116-0.205,0.169c-0.723,0.544-0.829,0.955-0.444,1.774c0.656,1.393,1.745,2.328,3.154,2.908 c0.371,0.153,0.721,0.077,1.005-0.224c0.038-0.04,0.081-0.079,0.109-0.125c0.556-0.927,1.361-0.835,2.105-0.306 c0.489,0.347,0.963,0.713,1.447,1.067C20.145,17.5,20.139,18.008,19.691,18.74z M15.511,9.143c-0.187,0-0.375,0.015-0.559,0.046 c-0.312,0.053-0.606-0.158-0.658-0.47c-0.052-0.311,0.158-0.606,0.47-0.658C15.009,8.021,15.261,8,15.511,8 C17.986,8,20,10.014,20,12.489c0,0.251-0.021,0.503-0.062,0.748c-0.047,0.279-0.289,0.477-0.563,0.477 c-0.031,0-0.063-0.002-0.095-0.008c-0.311-0.053-0.521-0.347-0.469-0.658c0.031-0.182,0.046-0.37,0.046-0.558 C18.857,10.644,17.356,9.143,15.511,9.143z M18,12.857c0,0.315-0.256,0.571-0.571,0.571c-0.315,0-0.571-0.256-0.571-0.571 c0-0.945-0.769-1.714-1.714-1.714c-0.315,0-0.571-0.256-0.571-0.571c0-0.315,0.256-0.571,0.571-0.571C16.718,10,18,11.282,18,12.857 z M21.846,13.554c-0.06,0.266-0.295,0.445-0.557,0.445c-0.042,0-0.085-0.005-0.127-0.014c-0.308-0.07-0.501-0.376-0.431-0.683 c0.083-0.365,0.125-0.742,0.125-1.12c0-2.778-2.26-5.039-5.039-5.039c-0.379,0-0.755,0.042-1.12,0.125 c-0.306,0.071-0.614-0.123-0.683-0.431c-0.07-0.308,0.123-0.614,0.431-0.683C14.893,6.051,15.355,6,15.819,6 C19.227,6,22,8.773,22,12.181C22,12.645,21.948,13.107,21.846,13.554z"/></svg>