<svg width="26" height="26" viewBox="0 0 26 26" fill="none" xmlns="http://www.w3.org/2000/svg">
<g clip-path="url(#clip0_17_833)">
<path d="M25.5992 5.05553C25.0987 4.19536 24.1778 3.61108 23.1111 3.61108H13V5.05553H25.5992ZM0 18.0555H26V19.5H0V18.0555ZM13 12.2778H26V13.7222H13V12.2778ZM13 9.38886H26V10.8333H13V9.38886ZM0 15.1666H26V16.6111H0V15.1666ZM2.88889 22.3889H23.1111C24.1778 22.3889 25.0987 21.8046 25.5992 20.9444H0.400833C0.901333 21.8046 1.82217 22.3889 2.88889 22.3889ZM13 6.49997H26V7.94442H13V6.49997Z" fill="#B22334"/>
<path d="M0.0491111 19.9904C0.0613889 20.0575 0.0751111 20.1247 0.0917222 20.1904C0.1105 20.2634 0.133611 20.3334 0.158167 20.4042C0.222444 20.5913 0.300444 20.7718 0.398667 20.9408L0.400833 20.9444H25.5992L25.6006 20.9415C25.6976 20.7713 25.7778 20.5921 25.8404 20.4064C25.888 20.2708 25.9247 20.1317 25.9502 19.9904C25.9798 19.8315 26 19.6683 26 19.5H0C0 19.6683 0.0202222 19.8308 0.0491111 19.9904ZM0 16.6111H26V18.0555H0V16.6111ZM0 13.7222V15.1667H26V13.7222H13H0ZM13 10.8333H26V12.2778H13V10.8333ZM13 7.94443H26V9.38888H13V7.94443ZM0.400833 5.05554L0.398667 5.05915L0.400833 5.05554ZM0.0924444 5.80954C0.1105 5.73588 0.135778 5.66582 0.158889 5.59504C0.133808 5.6656 0.111641 5.73716 0.0924444 5.80954ZM13 6.49999H26C26 6.33171 25.9798 6.16849 25.9502 6.00888C25.9249 5.8674 25.8879 5.72826 25.8397 5.59288C25.7771 5.40641 25.6965 5.22645 25.5992 5.05554H13V6.49999Z" fill="#EEEEEE"/>
<path d="M13 3.61108H2.88889C2.12271 3.61108 1.38791 3.91545 0.846136 4.45722C0.304364 4.99899 0 5.73379 0 6.49997L0 13.7222H13V3.61108Z" fill="#3C3B6E"/>
<path d="M1.44517 5.57988L1.8915 5.90415L1.72106 6.42776L2.16667 6.10421L2.613 6.42776L2.44256 5.90415L2.88889 5.57988H2.33711L2.16667 5.05554L1.99695 5.57988H1.44517ZM2.88961 7.02432L3.33595 7.3486L3.1655 7.87221L3.61111 7.54865L4.05745 7.87221L3.887 7.3486L4.33333 7.02432H3.78156L3.61111 6.49999L3.44139 7.02432H2.88961ZM5.7785 7.02432L6.22483 7.3486L6.05439 7.87221L6.5 7.54865L6.94633 7.87221L6.77589 7.3486L7.22222 7.02432H6.67045L6.5 6.49999L6.33028 7.02432H5.7785ZM8.66739 7.02432L9.11372 7.3486L8.94328 7.87221L9.38889 7.54865L9.83522 7.87221L9.66478 7.3486L10.1111 7.02432H9.55933L9.38889 6.49999L9.21917 7.02432H8.66739ZM2.88961 9.91321L3.33595 10.2375L3.1655 10.7611L3.61111 10.4375L4.05745 10.7611L3.887 10.2375L4.33333 9.91321H3.78156L3.61111 9.38888L3.44139 9.91321H2.88961ZM5.7785 9.91321L6.22483 10.2375L6.05439 10.7611L6.5 10.4375L6.94633 10.7611L6.77589 10.2375L7.22222 9.91321H6.67045L6.5 9.38888L6.33028 9.91321H5.7785ZM8.66739 9.91321L9.11372 10.2375L8.94328 10.7611L9.38889 10.4375L9.83522 10.7611L9.66478 10.2375L10.1111 9.91321H9.55933L9.38889 9.38888L9.21917 9.91321H8.66739ZM4.33406 5.57988L4.78039 5.90415L4.60995 6.42776L5.05556 6.10421L5.50189 6.42776L5.33145 5.90415L5.77778 5.57988H5.226L5.05556 5.05554L4.88583 5.57988H4.33406ZM7.22295 5.57988L7.66928 5.90415L7.49883 6.42776L7.94445 6.10421L8.39078 6.42776L8.22034 5.90415L8.66667 5.57988H8.11489L7.94445 5.05554L7.77472 5.57988H7.22295ZM10.1118 5.57988L10.5582 5.90415L10.3877 6.42776L10.8333 6.10421L11.2797 6.42776L11.1092 5.90415L11.5556 5.57988H11.0038L10.8333 5.05554L10.6636 5.57988H10.1118ZM1.44517 8.46876L1.8915 8.79304L1.72106 9.31665L2.16667 8.9931L2.613 9.31665L2.44256 8.79304L2.88889 8.46876H2.33711L2.16667 7.94443L1.99695 8.46876H1.44517ZM4.60995 9.31665L5.05556 8.9931L5.50189 9.31665L5.33145 8.79304L5.77778 8.46876H5.226L5.05556 7.94443L4.88583 8.46876H4.33406L4.78039 8.79304L4.60995 9.31665ZM7.22295 8.46876L7.66928 8.79304L7.49883 9.31665L7.94445 8.9931L8.39078 9.31665L8.22034 8.79304L8.66667 8.46876H8.11489L7.94445 7.94443L7.77472 8.46876H7.22295ZM10.1118 8.46876L10.5582 8.79304L10.3877 9.31665L10.8333 8.9931L11.2797 9.31665L11.1092 8.79304L11.5556 8.46876H11.0038L10.8333 7.94443L10.6636 8.46876H10.1118ZM1.44517 11.3577L1.8915 11.6819L1.72106 12.2055L2.16667 11.882L2.613 12.2055L2.44256 11.6819L2.88889 11.3577H2.33711L2.16667 10.8333L1.99695 11.3577H1.44517ZM4.60995 12.2055L5.05556 11.882L5.50189 12.2055L5.33145 11.6819L5.77778 11.3577H5.226L5.05556 10.8333L4.88583 11.3577H4.33406L4.78039 11.6819L4.60995 12.2055ZM7.22295 11.3577L7.66928 11.6819L7.49883 12.2055L7.94445 11.882L8.39078 12.2055L8.22034 11.6819L8.66667 11.3577H8.11489L7.94445 10.8333L7.77472 11.3577H7.22295ZM10.1118 11.3577L10.5582 11.6819L10.3877 12.2055L10.8333 11.882L11.2797 12.2055L11.1092 11.6819L11.5556 11.3577H11.0038L10.8333 10.8333L10.6636 11.3577H10.1118Z" fill="white"/>
</g>
<defs>
<clipPath id="clip0_17_833">
<rect width="26" height="26" fill="white"/>
</clipPath>
</defs>
</svg>
