<svg width="32" height="28" viewBox="0 0 32 28" fill="none" xmlns="http://www.w3.org/2000/svg">
<path d="M1.55078 5.97034C2.02202 4.87922 2.70149 3.89045 3.55117 3.0594C4.40149 2.22587 5.40404 1.56347 6.5043 1.10823C7.6452 0.634297 8.86888 0.391712 10.1043 0.394556C11.8375 0.394556 13.5285 0.869165 14.998 1.76565C15.3496 1.9801 15.6836 2.21565 16 2.47229C16.3164 2.21565 16.6504 1.9801 17.002 1.76565C18.4715 0.869165 20.1625 0.394556 21.8957 0.394556C23.1438 0.394556 24.3531 0.633619 25.4957 1.10823C26.5996 1.56526 27.5945 2.22268 28.4488 3.0594C29.2996 3.88952 29.9793 4.87851 30.4492 5.97034C30.9379 7.10588 31.1875 8.31174 31.1875 9.55276C31.1875 10.7235 30.9484 11.9434 30.4738 13.1844C30.0766 14.2215 29.507 15.2973 28.7793 16.3836C27.6262 18.1028 26.0406 19.8957 24.0719 21.7133C20.8094 24.7262 17.5785 26.8074 17.4414 26.8918L16.6082 27.4262C16.2391 27.6617 15.7645 27.6617 15.3953 27.4262L14.5621 26.8918C14.425 26.8039 11.1977 24.7262 7.93164 21.7133C5.96289 19.8957 4.37734 18.1028 3.22422 16.3836C2.49648 15.2973 1.92344 14.2215 1.52969 13.1844C1.05508 11.9434 0.816015 10.7235 0.816015 9.55276C0.8125 8.31174 1.06211 7.10588 1.55078 5.97034ZM16 24.6453C16 24.6453 28.5156 16.6262 28.5156 9.55276C28.5156 5.97034 25.552 3.06643 21.8957 3.06643C19.3258 3.06643 17.0969 4.50081 16 6.59612C14.9031 4.50081 12.6742 3.06643 10.1043 3.06643C6.44805 3.06643 3.48438 5.97034 3.48438 9.55276C3.48438 16.6262 16 24.6453 16 24.6453Z" fill="#F5F5F5"/>
</svg>
