<svg width="23" height="19" viewBox="0 0 23 19" fill="none" xmlns="http://www.w3.org/2000/svg">
<path d="M0.556458 3.89367C0.913319 3.13173 1.42788 2.44126 2.07133 1.86092C2.71527 1.27885 3.47448 0.816288 4.3077 0.498386C5.17169 0.167432 6.09837 -0.0019684 7.03394 1.7256e-05C8.34647 1.7256e-05 9.62706 0.331444 10.7399 0.957474C11.0062 1.10723 11.2591 1.27172 11.4987 1.45093C11.7383 1.27172 11.9912 1.10723 12.2575 0.957474C13.3703 0.331444 14.6509 1.7256e-05 15.9634 1.7256e-05C16.9086 1.7256e-05 17.8244 0.166958 18.6897 0.498386C19.5256 0.817538 20.2791 1.27663 20.926 1.86092C21.5703 2.4406 22.085 3.13124 22.4409 3.89367C22.811 4.68664 23 5.52871 23 6.39533C23 7.21285 22.819 8.06474 22.4595 8.93137C22.1587 9.65559 21.7274 10.4068 21.1763 11.1654C20.303 12.3659 19.1023 13.618 17.6114 14.8872C15.1408 16.9912 12.6941 18.4446 12.5902 18.5035L11.9593 18.8766C11.6797 19.0411 11.3203 19.0411 11.0408 18.8766L10.4098 18.5035C10.306 18.4421 7.86192 16.9912 5.38861 14.8872C3.8977 13.618 2.69698 12.3659 1.82373 11.1654C1.27263 10.4068 0.838667 9.65559 0.540485 8.93137C0.181068 8.06474 2.86102e-05 7.21285 2.86102e-05 6.39533C-0.00263405 5.52871 0.186392 4.68664 0.556458 3.89367ZM11.4987 16.9347C11.4987 16.9347 20.9766 11.3348 20.9766 6.39533C20.9766 3.89367 18.7323 1.86583 15.9634 1.86583C14.0173 1.86583 12.3293 2.86748 11.4987 4.33067C10.668 2.86748 8.98011 1.86583 7.03394 1.86583C4.2651 1.86583 2.02075 3.89367 2.02075 6.39533C2.02075 11.3348 11.4987 16.9347 11.4987 16.9347Z" fill="#1181B2"/>
</svg>
