<svg width="26" height="26" fill="none" xmlns="http://www.w3.org/2000/svg"><g clip-path="url(#clip0_17_906)"><path d="M0 19.5a2.889 2.889 0 002.889 2.889H23.11A2.889 2.889 0 0026 19.5v-3.611H0V19.5z" fill="#138808"/><path d="M26 10.111V6.5a2.89 2.89 0 00-2.889-2.889H2.89A2.889 2.889 0 000 6.5v3.611h26z" fill="#F93"/><path d="M0 9.87h26v6.26H0V9.87z" fill="#F7F7F7"/><path d="M13 15.889a2.889 2.889 0 100-5.778 2.889 2.889 0 000 5.778z" fill="navy"/><path d="M13 15.438a2.437 2.437 0 100-4.875 2.437 2.437 0 000 4.874z" fill="#F7F7F7"/><path d="M13.072 12.097l-.072.47-.072-.47L13 10.69l.072 1.408zm-.67-1.33l.295 1.38.191.434-.052-.471-.434-1.342zm-.557.232l.64 1.255.298.37-.171-.442-.768-1.183zm-.48.367l.945 1.047.384.28-.281-.383-1.047-.944zm-.366.479l1.183.766.442.172-.37-.297-1.255-.642zm-.231.557l1.341.434.472.052-.435-.191-1.378-.295zm-.08.598l1.41.072.469-.072-.47-.072L10.69 13zm.08.598l1.378-.295.435-.191-.471.052-1.342.434zm.23.558l1.256-.642.37-.297-.442.172-1.183.767zm.368.478l1.047-.944.28-.384-.383.281-.944 1.047zm.479.367l.766-1.183.172-.442-.297.37-.642 1.255zm.557.231l.434-1.341.052-.472-.191.435-.295 1.378zm.598.08l.072-1.41-.072-.469-.072.47L13 15.31zm.598-.08l-.295-1.378-.191-.435.052.471.434 1.342zm.558-.23l-.642-1.256-.297-.37.172.442.767 1.183zm.478-.368l-.944-1.047-.384-.28.281.383 1.047.944zm.367-.478l-1.183-.767-.442-.172.37.297 1.255.642zm.231-.558l-1.341-.434-.472-.052.435.191 1.378.295zm.08-.598l-1.41-.072-.469.072.47.072L15.31 13zm-.08-.598l-1.378.295-.435.191.471-.052 1.342-.434zm-.23-.557l-1.256.64-.37.298.442-.171 1.183-.768zm-.368-.48l-1.047.945-.28.384.383-.281.944-1.047zM14.156 11l-.767 1.183-.172.442.297-.37.642-1.255zm-.558-.231l-.434 1.341-.052.472.191-.435.295-1.378z" fill="#6666B3"/><path d="M12.682 10.732a.144.144 0 100-.29.144.144 0 000 .29zm-.614.164a.145.145 0 100-.289.145.145 0 000 .29zm-.55.317a.145.145 0 100-.289.145.145 0 000 .29zm-.449.449a.145.145 0 100-.289.145.145 0 000 .29zm-.317.551a.145.145 0 100-.29.145.145 0 000 .29zm-.165.614a.144.144 0 100-.29.144.144 0 000 .29zm0 .635a.144.144 0 100-.289.144.144 0 000 .29zm.165.614a.144.144 0 100-.289.144.144 0 000 .29zm.317.551a.145.145 0 100-.29.145.145 0 000 .29zm.449.449a.145.145 0 100-.29.145.145 0 000 .29zm.55.317a.144.144 0 100-.29.144.144 0 000 .29zm.614.164a.145.145 0 100-.289.145.145 0 000 .29zm.636 0a.144.144 0 100-.288.144.144 0 000 .288zm.614-.164a.144.144 0 100-.29.144.144 0 000 .29zm.55-.317a.145.145 0 100-.29.145.145 0 000 .29zm.449-.449a.145.145 0 100-.29.145.145 0 000 .29zm.317-.551a.144.144 0 100-.289.144.144 0 000 .29zm.165-.614a.144.144 0 100-.289.144.144 0 000 .29zm0-.635a.145.145 0 100-.29.145.145 0 000 .29zm-.165-.614a.144.144 0 100-.29.144.144 0 000 .29zm-.317-.551a.145.145 0 100-.289.145.145 0 000 .29zm-.449-.449a.145.145 0 100-.289.145.145 0 000 .29zm-.55-.317a.144.144 0 100-.289.144.144 0 000 .29zm-.614-.164a.144.144 0 100-.29.144.144 0 000 .29zM13 13.65a.65.65 0 100-1.3.65.65 0 000 1.3z" fill="navy"/></g><defs><clipPath id="clip0_17_906"><path fill="#fff" d="M0 0h26v26H0z"/></clipPath></defs></svg>