<svg width="26" height="26" fill="none" xmlns="http://www.w3.org/2000/svg"><g clip-path="url(#clip0_17_833)"><path d="M25.6 5.056a2.876 2.876 0 00-2.49-1.446H13v1.445h12.6zm-25.6 13h26V19.5H0v-1.445zm13-5.778h13v1.444H13v-1.444zm0-2.89h13v1.445H13V9.39zm-13 5.78h26v1.444H0v-1.444zm2.889 7.222H23.11a2.876 2.876 0 002.488-1.445H.401c.5.86 1.421 1.445 2.488 1.445zM13 6.5h13v1.444H13V6.5z" fill="#B22334"/><path d="M.05 19.99a2.147 2.147 0 00.108.414c.064.187.142.368.24.537l.003.003h25.198l.002-.002a3.045 3.045 0 00.35-.952c.029-.159.049-.322.049-.49H0c0 .168.02.33.05.49zM0 16.611h26v1.444H0v-1.444zm0-2.889v1.445h26v-1.445H0zm13-2.889h13v1.445H13v-1.445zm0-2.889h13V9.39H13V7.944zM.4 5.056v.003-.003zm-.308.754c.019-.074.044-.144.067-.215a2.73 2.73 0 00-.067.215zM13 6.5h13c0-.168-.02-.332-.05-.491a2.61 2.61 0 00-.11-.416 3.045 3.045 0 00-.24-.537H13V6.5z" fill="#EEE"/><path d="M13 3.611H2.889A2.889 2.889 0 000 6.5v7.222h13V3.612z" fill="#3C3B6E"/><path d="M1.445 5.58l.446.324-.17.524.446-.324.446.324-.17-.524.446-.324h-.552l-.17-.524-.17.524h-.552zM2.89 7.024l.446.325-.17.523.445-.323.446.323-.17-.523.446-.325h-.551l-.17-.524-.17.524H2.89zm2.889 0l.446.325-.17.523.445-.323.446.323-.17-.523.446-.325H6.67L6.5 6.5l-.17.524h-.55zm2.888 0l.447.325-.17.523.445-.323.446.323-.17-.523.446-.325H9.56L9.39 6.5l-.17.524h-.552zM2.89 9.914l.446.324-.17.523.445-.323.446.323-.17-.523.446-.325h-.551l-.17-.524-.17.524H2.89zm2.889 0l.446.324-.17.523.445-.323.446.323-.17-.523.446-.325H6.67L6.5 9.39l-.17.524h-.55zm2.888 0l.447.324-.17.523.445-.323.446.323-.17-.523.446-.325H9.56l-.17-.524-.17.524h-.552zM4.334 5.58l.446.324-.17.524.446-.324.446.324-.17-.524.446-.324h-.552l-.17-.524-.17.524h-.552zm2.889 0l.446.324-.17.524.445-.324.447.324-.17-.524.446-.324h-.552l-.17-.524-.17.524h-.552zm2.889 0l.446.324-.17.524.445-.324.447.324-.17-.524.446-.324h-.552l-.17-.524-.17.524h-.552zM1.445 8.469l.446.324-.17.524.446-.324.446.324-.17-.524.446-.324h-.552l-.17-.525-.17.525h-.552zm3.165.848l.446-.324.446.324-.17-.524.446-.324h-.552l-.17-.525-.17.525h-.552l.446.324-.17.524zm2.613-.848l.446.324-.17.524.445-.324.447.324-.17-.524.446-.324h-.552l-.17-.525-.17.525h-.552zm2.889 0l.446.324-.17.524.445-.324.447.324-.17-.524.446-.324h-.552l-.17-.525-.17.525h-.552zm-8.667 2.889l.446.324-.17.524.446-.324.446.324-.17-.524.446-.324h-.552l-.17-.525-.17.525h-.552zm3.165.848l.446-.324.446.324-.17-.524.446-.324h-.552l-.17-.525-.17.525h-.552l.446.324-.17.524zm2.613-.848l.446.324-.17.524.445-.324.447.324-.17-.524.446-.324h-.552l-.17-.525-.17.525h-.552zm2.889 0l.446.324-.17.524.445-.324.447.324-.17-.524.446-.324h-.552l-.17-.525-.17.525h-.552z" fill="#fff"/></g><defs><clipPath id="clip0_17_833"><path fill="#fff" d="M0 0h26v26H0z"/></clipPath></defs></svg>