<svg width="26" height="26" fill="none" xmlns="http://www.w3.org/2000/svg"><g clip-path="url(#clip0_17_862)"><path d="M0 6.543v2.846h4.065L0 6.543zm3.368 15.846h6.02v-4.216l-6.02 4.216zm13.243-4.215v4.215h6.02l-6.02-4.215zM0 16.611v2.846l4.066-2.846H0zm22.632-13h-6.02v4.216l6.02-4.216zM26 19.458v-2.847h-4.067L26 19.458zm0-10.07V6.544L21.935 9.39H26zM9.389 3.612h-6.02l6.02 4.216V3.61z" fill="#00247D"/><path d="M18.157 16.611l7.014 4.912c.343-.353.589-.788.715-1.263l-5.21-3.649h-2.52zm-8.768 0H7.843L.829 21.522a2.88 2.88 0 001.4.784l7.16-5.014v-.68zM16.61 9.39h1.546l7.014-4.911a2.88 2.88 0 00-1.399-.784l-7.16 5.014v.68zm-8.768 0L.829 4.478A2.885 2.885 0 00.113 5.74l5.211 3.648h2.519z" fill="#CF1B2B"/><path d="M26 15.167H15.167v7.222h1.444v-4.215l6.02 4.215h.48a2.883 2.883 0 002.06-.866l-7.014-4.912h2.518l5.21 3.649c.068-.244.115-.496.115-.76v-.042l-4.067-2.847H26v-1.444zm-26 0v1.444h4.066L0 19.457v.043c0 .788.317 1.5.83 2.022l7.013-4.91h1.546v.68l-7.16 5.013c.212.05.432.084.66.084h.48l6.02-4.216v4.216h1.444v-7.222H0zM26 6.5c0-.757-.297-1.484-.83-2.022l-7.013 4.91h-1.546v-.68l7.16-5.014a2.89 2.89 0 00-.66-.083h-.479l-6.02 4.216V3.61h-1.445v7.222H26V9.39h-4.065L26 6.543V6.5zM9.389 3.611v4.216L3.369 3.61h-.48a2.878 2.878 0 00-2.06.867l7.014 4.91H5.324L.114 5.742A2.87 2.87 0 000 6.501v.043L4.065 9.39H0v1.444h10.833V3.611H9.39z" fill="#EEE"/><path d="M15.167 10.833V3.611h-4.334v7.222H0v4.334h10.833v7.222h4.334v-7.222H26v-4.334H15.167z" fill="#CF1B2B"/></g><defs><clipPath id="clip0_17_862"><path fill="#fff" d="M0 0h26v26H0z"/></clipPath></defs></svg>