<svg width="32" height="28" fill="none" xmlns="http://www.w3.org/2000/svg"><path d="M1.55 5.97a9.142 9.142 0 012.001-2.91A9.328 9.328 0 0110.104.394 9.39 9.39 0 0116 2.472 9.39 9.39 0 0121.896.394c1.248 0 2.457.24 3.6.714a9.276 9.276 0 012.953 1.951 9.085 9.085 0 012.738 6.494c0 1.17-.239 2.39-.713 3.631-.397 1.038-.967 2.113-1.695 3.2-1.153 1.719-2.738 3.512-4.707 5.33-3.263 3.012-6.494 5.093-6.63 5.178l-.834.534a1.13 1.13 0 01-1.213 0l-.833-.534c-.137-.088-3.364-2.166-6.63-5.179-1.97-1.817-3.555-3.61-4.708-5.33-.728-1.086-1.3-2.161-1.694-3.199-.475-1.24-.714-2.46-.714-3.631a8.95 8.95 0 01.735-3.583zM16 24.645s12.516-8.019 12.516-15.092c0-3.583-2.964-6.487-6.62-6.487-2.57 0-4.8 1.435-5.896 3.53-1.097-2.095-3.326-3.53-5.896-3.53-3.656 0-6.62 2.904-6.62 6.487C3.484 16.626 16 24.645 16 24.645z" fill="#F5F5F5"/></svg>