<svg width="95" height="49" fill="none" xmlns="http://www.w3.org/2000/svg"><path d="M23.75 14.201c1 .577 1 2.02 0 2.598L11 24.16a1.5 1.5 0 01-2.25-1.299V8.14A1.5 1.5 0 0111 6.84l12.75 7.362z" fill="#26ACE2" stroke="#212221" stroke-width="3"/><rect x="14.5" y="7.5" width="19" height="15" rx="4.5" fill="#fff" stroke="#212221" stroke-width="3"/><circle cx="86.5" cy="14.5" r="7" fill="#26ACE2" stroke="#212221" stroke-width="3"/><rect x="29.5" y="5.5" width="28" height="19" rx="6.5" fill="#fff" stroke="#212221" stroke-width="3"/><rect x="52.5" y="1.5" width="34" height="27" rx="6.5" fill="#fff" stroke="#212221" stroke-width="3"/><path d="M23.808 36.088V46H20.7v-9.912h3.108zm9.188 0v2.464h-2.632V46h-3.108v-7.448h-2.604v-2.464h8.344zm12.392 0V46H42.28v-3.864h-2.954V46h-3.108v-9.912h3.108v3.57h2.954v-3.57h3.108zm4.436 0v5.586c0 .457.098.821.294 1.092.205.261.532.392.98.392.448 0 .78-.13.994-.392.215-.27.322-.635.322-1.092v-5.586h3.094v5.586c0 .943-.196 1.75-.588 2.422a3.776 3.776 0 01-1.61 1.498c-.681.336-1.442.504-2.282.504-.84 0-1.587-.168-2.24-.504a3.599 3.599 0 01-1.512-1.498c-.364-.663-.546-1.47-.546-2.422v-5.586h3.094zM66.354 46h-3.108l-3.29-4.984V46h-3.108v-9.912h3.108l3.29 5.068v-5.068h3.108V46zm9.189-9.912v2.464H72.91V46h-3.108v-7.448h-2.604v-2.464h8.344z" fill="#212221"/></svg>